/* XPM */
static char *_40bdd3549954be3f02ece3d0cddd8d0oFxyggkHEavVxByu[] = {
/* columns rows colors chars-per-pixel */
"30 30 151 2 ",
"   c None",
".  c #010101",
"X  c #010107",
"o  c #020208",
"O  c #03030D",
"+  c #08080E",
"@  c #070714",
"#  c #0A0A12",
"$  c #0C0C13",
"%  c #090915",
"&  c #0B0A17",
"*  c #0D0D15",
"=  c #0B0B18",
"-  c #0C0C19",
";  c #0D0E1A",
":  c #0E0E1C",
">  c #0E0E1D",
",  c #0E0F1E",
"<  c #1C1C1D",
"1  c #1D1D1E",
"2  c #1E1E1F",
"3  c #21200F",
"4  c #22210F",
"5  c #2B2B1F",
"6  c #2C2B1F",
"7  c #121323",
"8  c #171723",
"9  c #131324",
"0  c #151527",
"q  c #191924",
"w  c #1A1A24",
"e  c #1A1A25",
"r  c #1E1E24",
"t  c #1C1C26",
"y  c #1E1D27",
"u  c #1F1F26",
"i  c #151628",
"p  c #18172C",
"a  c #171928",
"s  c #17192C",
"d  c #18192C",
"f  c #18182D",
"g  c #1A1A2E",
"h  c #1A1B2E",
"j  c #1B1C31",
"k  c #1D1C30",
"l  c #201F28",
"z  c #21212E",
"x  c #2C2F28",
"c  c #2D2F28",
"v  c #232330",
"b  c #232333",
"n  c #242536",
"m  c #242537",
"M  c #27283E",
"N  c #2B2C3D",
"B  c #2D2E3F",
"V  c #573239",
"C  c #59333A",
"Z  c #292A40",
"A  c #292A41",
"S  c #2A2B42",
"D  c #2A2B43",
"F  c #282A46",
"G  c #292A46",
"H  c #2B2D47",
"J  c #2E2F45",
"K  c #2C2D46",
"L  c #2A2C48",
"P  c #2B2C48",
"I  c #2A2C4E",
"U  c #2B2D4F",
"Y  c #2F3043",
"T  c #2E304F",
"R  c #313140",
"E  c #313240",
"W  c #303146",
"Q  c #303247",
"!  c #313148",
"~  c #313249",
"^  c #212157",
"/  c #2F3151",
"(  c #2F3156",
")  c #2F3157",
"_  c #313359",
"`  c #31335A",
"'  c #33355D",
"]  c #34365D",
"[  c #34365E",
"{  c #333560",
"}  c #373964",
"|  c #383A64",
" . c #383A65",
".. c #393A65",
"X. c #393B65",
"o. c #3B3D67",
"O. c #3D3F69",
"+. c #3C3E6A",
"@. c #2E3070",
"#. c #2F3171",
"$. c #603C50",
"%. c #603D52",
"&. c #3E406E",
"*. c #3F416F",
"=. c #414442",
"-. c #404344",
";. c #61455D",
":. c #61455E",
">. c #434577",
",. c #434677",
"<. c #4A4672",
"1. c #4A4772",
"2. c #494B78",
"3. c #494B7A",
"4. c #494C7A",
"5. c #4A4D7A",
"6. c #C3C007",
"7. c #C5C108",
"8. c #4C4E84",
"9. c #4C4F84",
"0. c #4F5183",
"q. c #54568A",
"w. c #54578A",
"e. c #56598E",
"r. c #585B8A",
"t. c #595C8B",
"y. c #575A91",
"u. c #585A90",
"i. c #5A5C93",
"p. c #595C94",
"a. c #5A5D95",
"s. c #5B5E96",
"d. c #5C5F98",
"f. c #61649F",
"g. c #5758A6",
"h. c #595AA9",
"j. c #6063A0",
"k. c #6063A1",
"l. c #6265A1",
"z. c #6164A4",
"x. c #6164A5",
"c. c #696CAF",
"v. c #6C70B1",
"b. c #6D71B2",
"n. c #6A70B7",
"m. c #6F73B6",
"M. c #6F73B7",
"N. c #6970B8",
"B. c #DED9DA",
"V. c #DEDADB",
"C. c white",
/* pixels */
"                                                            ",
"                                                            ",
"                                                            ",
"                                                            ",
"                                                            ",
"                                                            ",
"                                                            ",
"                                                            ",
"                                                            ",
"            <                                 <             ",
"        v # O Y                             Q O # z         ",
"      w 3.= ) ..Y       u         l       Y ..) - 4.w       ",
"    B j + 7 a.i ;     ~ ` 8     q _ Q     ; i u.9 + j N     ",
"    T u.: i.b.o . E   Z >...* $ | >.N   E . o b.a.; e./     ",
"  Q a.l.*.m.w., I % * { @.x.O.o.k.@.{ * % U , q.M.+.f.d.~   ",
"  f Z D 0.y.s ] c...f L 5 r.n.N.r.c P f ..c.{ f p.0.Z Z h   ",
"  <       u 4.9.k.O.@ 3 7.=.g.h.-.6.4 @ O.k.9.3.u       <   ",
"            b ] H n M F x <.$.$.1.c F M m H { v             ",
"              u       a ^ :.C V :.^ a       u               ",
"                        y V.k p V.l                         ",
"                          C.    C.                          ",
"                                                            ",
"                                                            ",
"                                                            ",
"                                                            ",
"                                                            ",
"                                                            ",
"                                                            ",
"                                                            ",
"                                                            "
};
