/* XPM */
static char *_c397a5b4e154679b6e73d63617148baZqKARwnYUgUku4ZH[] = {
/* columns rows colors chars-per-pixel */
"30 30 76 1 ",
"  c None",
". c black",
"X c #000001",
"o c #010106",
"O c #010108",
"+ c #02020A",
"@ c #050508",
"# c #04040C",
"$ c #05050E",
"% c #090A12",
"& c #090915",
"* c #0D0D14",
"= c #0D0E1C",
"- c #161616",
"; c #10101B",
": c #10111B",
"> c #17171E",
", c #201F0C",
"< c #2B2B1F",
"1 c #191925",
"2 c #17162A",
"3 c #19192C",
"4 c #1B1C30",
"5 c #1B1C31",
"6 c #1C1D33",
"7 c #1D1E33",
"8 c #1F2037",
"9 c #2A2C22",
"0 c #24242B",
"q c #282932",
"w c #2F2F35",
"e c #28293D",
"r c #28293F",
"t c #59343D",
"y c #171842",
"u c #282946",
"i c #2D2F48",
"p c #2D2E4C",
"a c #313248",
"s c #323448",
"d c #333449",
"f c #363748",
"g c #35374D",
"h c #37384A",
"j c #36384F",
"k c #393A4D",
"l c #313257",
"z c #32335A",
"x c #35375A",
"c c #2D2F6E",
"v c #333561",
"b c #383A65",
"n c #393B65",
"m c #3A3C67",
"M c #3B3E68",
"N c #593C4E",
"B c #613D52",
"V c #3E4174",
"C c #404444",
"Z c #48456F",
"A c #404270",
"S c #434576",
"D c #C4C209",
"F c #4A4E82",
"G c #595C8B",
"H c #5A5C94",
"J c #5A5D95",
"K c #60639D",
"L c #5859A8",
"P c #6265A5",
"I c #6A6DAE",
"U c #6B6EAF",
"Y c #6970B7",
"T c #7174BA",
"R c #E1DCDC",
"E c white",
/* pixels */
"                              ",
"                              ",
"                              ",
"                              ",
"                              ",
"                              ",
"                              ",
"                              ",
"                              ",
"            0    0            ",
"           az1  1za           ",
"           8Sb**bS8           ",
"          svcPMMPcvs          ",
"          6p<GYYG<p6          ",
"          ;,DCLLCD,;          ",
"         -5x9ZBBZ9x5-         ",
"      w q@&FyNttNyF&@q w      ",
"     >.%AH=;kR22Rk:=HA%.>     ",
"     3$ObTUVhE  EhVITmO$3     ",
"     gz.$KIu      uIK$.zg     ",
"      rOors        sroOr      ",
"      6mr            rm6      ",
"      jHi            iHj      ",
"       r5            5r       ",
"        h            h        ",
"                              ",
"                              ",
"                              ",
"                              ",
"                              "
};
