/* XPM */
static char *c9490da3363f4cc5a077173f9ded4ce0r4iIfxNSCiBvZ6se[] = {
/* columns rows colors chars-per-pixel */
"30 30 93 2 ",
"   c None",
".  c black",
"X  c #010000",
"o  c #0A0000",
"O  c #00000A",
"+  c #1E0000",
"@  c #260000",
"#  c #2E0000",
"$  c #3B0D0D",
"%  c #590000",
"&  c #660000",
"*  c #720000",
"=  c #750000",
"-  c #681400",
";  c #41280F",
":  c #5E380F",
">  c #712211",
",  c #6A4219",
"<  c #6A451E",
"1  c #574D21",
"2  c #5C4F21",
"3  c #644320",
"4  c #6A4722",
"5  c #6C4823",
"6  c #6E4923",
"7  c #764D23",
"8  c #704B24",
"9  c #7F5224",
"0  c #795128",
"q  c #7B5328",
"w  c #7C602E",
"e  c #830000",
"r  c #A6010B",
"t  c #A61514",
"y  c #E8302C",
"u  c #F7342A",
"i  c #FF3335",
"p  c #815729",
"a  c #865A2B",
"s  c #865B2D",
"d  c #8F602E",
"f  c #90602F",
"g  c #92622F",
"h  c #966430",
"j  c #936931",
"k  c #9D6933",
"l  c #A76724",
"z  c #A26D35",
"x  c #A76F34",
"c  c #AC7B37",
"v  c #AD7438",
"b  c #B57435",
"n  c #BB7F39",
"m  c #C77F3F",
"M  c #BB843F",
"N  c #C2813E",
"B  c #C2823F",
"V  c #C3833F",
"C  c #C48340",
"Z  c #C48440",
"A  c #C58440",
"S  c #C58540",
"D  c #C68540",
"F  c #C78541",
"G  c #C68641",
"H  c #C88240",
"J  c #C98741",
"K  c #CB8641",
"L  c #C58B42",
"P  c #D58446",
"I  c #D58943",
"U  c #D68E42",
"Y  c #D08B44",
"T  c #D18C44",
"R  c #D48E44",
"E  c #CE9A4A",
"W  c #D89047",
"Q  c #D99147",
"!  c #D99247",
"~  c #E6974A",
"^  c #E79B4C",
"/  c #E99D4E",
"(  c #ED9F4D",
")  c #D6A14C",
"_  c #ECA850",
"`  c #FAA852",
"'  c #FFAB53",
"]  c #FFB055",
"[  c #959595",
"{  c #F8F7F7",
"}  c #F8F8F8",
"|  c #F9F9F9",
" . c white",
/* pixels */
"                                                            ",
"                                                            ",
"                                                            ",
"                                                            ",
"                                                            ",
"                                                            ",
"                                . . . . .                   ",
"                              o ~ * y u % .                 ",
"                            . n I y y { { & .               ",
"                          . l _ m y y y { e $ .             ",
"                        . U / M H y t e e { e @ .           ",
"                      . ^ J A A J E y r { { e # .           ",
"                    . b R A A A A L c y i = e e .           ",
"                  . B ] B A A A V B ) P y > e - .           ",
"                  O B ( A A A A A J J j 1 w 2 .             ",
"                  . B ` C A A A A W g 3 0 g .               ",
"                    . + ' ! T ! Y s 8 s 9 .                 ",
"                    .  ., x v z z 6 a : .                   ",
"                  .  . .O ; < 6 5 q 7 .                     ",
"            . . .  . .} [ . . h p g .                       ",
"          .  . . . . .[ .     . . .                         ",
"          .  . . . .[ .                                     ",
"            . . [ } .                                       ",
"              . [ [ .                                       ",
"                . .                                         ",
"                                                            ",
"                                                            ",
"                                                            ",
"                                                            ",
"                                                            "
};
