/* XPM */
static char *cce0599e84494b05e67d7e624f4f87784BdywQoBfXO63aJV[] = {
/* columns rows colors chars-per-pixel */
"30 30 55 1 ",
"  c None",
". c #252737",
"X c #262837",
"o c #272938",
"O c #282A39",
"+ c #46351E",
"@ c #5F3822",
"# c #775038",
"$ c #3E474C",
"% c #855235",
"& c #875334",
"* c #875335",
"= c #865336",
"- c #88533A",
"; c #846741",
": c #826941",
"> c #826843",
", c #836843",
"< c #836943",
"1 c #856943",
"2 c #826844",
"3 c #826845",
"4 c #846A45",
"5 c #866A45",
"6 c #97674E",
"7 c #956755",
"8 c #8A7856",
"9 c #9E7259",
"0 c #9E715A",
"q c #9F715A",
"w c #9F715B",
"e c #9D735B",
"r c #9F755D",
"t c #9E775E",
"y c #A0725B",
"u c #A0725C",
"i c #A1735C",
"p c #A0765D",
"a c #A0745E",
"s c #AB9767",
"d c #B5A16C",
"f c #B6A26D",
"g c #919A9F",
"h c #97A1A5",
"j c #95A1A7",
"k c #97A2A6",
"l c #98A3A9",
"z c #99A3AA",
"x c #98A2AB",
"c c #99A4AA",
"v c #C4D1D9",
"b c #C6D3DB",
"n c #C7D4DC",
"m c #C9D3DC",
"M c #C9D6DE",
/* pixels */
"                              ",
"                              ",
"                              ",
"         ++++++++++           ",
"        +,8ff,f,f1f+          ",
"        +3+,,f,f3f>f+         ",
"       +,1++f,f,f;f1+         ",
"      +,,+qq+s,f>f>f3+        ",
"     +,,+7qqq+f,f>f;f3+       ",
"     +,+qqqqqq+f1f>f1d+       ",
"    +,4+aartqqq+f3f>f>f+      ",
"   +,4+qqqqqqq6q+f;f>f;f+     ",
"   +,+qqqqqqqqqq+3f>f,f,f+    ",
"  +,+==+OX+%+Xo+-+1f,f,f,+    ",
" +1,+qr+OX+a+oo+qq+,f,f,f,+   ",
"+,,+qqq+oo+q+oo+qqq+,f,f,f,+  ",
"+,,+%%%%==*%=*=*%=%+f3f,f3f1+ ",
"+++qqqwqwwyqqywwqyww+++++++++ ",
"  $iwiiwwwwwiwiwiwiwwiiqiq$   ",
"  $nnnnvvvbvvvvvvvvvvjjjjk$   ",
"  $nnnnnnnnnn++++++vvxxlcj$   ",
"  $nnnnnnnnnn+e.Xe+vvxhgcc$   ",
"  $mnnnnnnnnn+e.Xq+vvlx+++$   ",
"  $nMnnnnnnnn+woXe+bbll+##$   ",
"  $nMnnnnnnnn++++++nbll+@#$   ",
"  $nnnnnnnnnnnnnbnnnbcl+##$   ",
"  $$$$$$$$$$$$$$$$$$$$$+++$   ",
"                              ",
"                              ",
"                              "
};
