/* XPM */
static char *de60c75a77b641d49befc0259c6769afRjevdERonJh5grpw[] = {
/* columns rows colors chars-per-pixel */
"30 30 184 2 ",
"   c None",
".  c #060200",
"X  c gray2",
"o  c #070707",
"O  c #0C0501",
"+  c #0B0607",
"@  c #0D0707",
"#  c #0C0C02",
"$  c #020708",
"%  c #080708",
"&  c #060C0B",
"*  c gray4",
"=  c #0C0D0A",
"-  c #0F0F0A",
";  c #090D0F",
":  c #0B0D0E",
">  c #0F0E0C",
",  c #0C0D0F",
"<  c gray6",
"1  c #120600",
"2  c #100900",
"3  c #170800",
"4  c #110E01",
"5  c #150D07",
"6  c #100E0B",
"7  c #110F0B",
"8  c #120A0F",
"9  c #14080F",
"0  c #100E0F",
"q  c #120E0F",
"w  c #061407",
"e  c #081203",
"r  c #0E100A",
"t  c #0B100C",
"y  c #1C1100",
"u  c #1E1003",
"i  c #1F1506",
"p  c #13100C",
"a  c #10110F",
"s  c #19160D",
"d  c #030713",
"f  c #0F0910",
"g  c #0B0F12",
"h  c #0A0F13",
"j  c #0F0D10",
"k  c #0E0F11",
"l  c #0F0F12",
"z  c #0E0F13",
"x  c #120D11",
"c  c #120D13",
"v  c #100E13",
"b  c #140A19",
"n  c #091211",
"m  c #0C1012",
"M  c #0C1013",
"N  c #02121F",
"B  c #151E1D",
"V  c #171C1F",
"C  c #1D1C1B",
"Z  c #210E02",
"A  c #221F08",
"S  c #371506",
"D  c #221F1C",
"F  c #221D1E",
"G  c #25220F",
"H  c #2B2916",
"J  c #23221F",
"K  c #36231B",
"L  c #30271D",
"P  c #3A261D",
"I  c #101920",
"U  c #111922",
"Y  c #231E20",
"T  c #201D23",
"R  c #1A2325",
"E  c #272727",
"W  c #2A2129",
"Q  c #2D212D",
"!  c #2E202D",
"~  c #31222C",
"^  c #342235",
"/  c #47230E",
"(  c #412611",
")  c #422513",
"_  c #432415",
"`  c #432714",
"'  c #44281B",
"]  c #502E18",
"[  c #483628",
"{  c #483629",
"}  c #48372D",
"|  c #5F3826",
" . c #573830",
".. c #603B26",
"X. c #603D24",
"o. c #7B4320",
"O. c #724828",
"+. c #664C3D",
"@. c #664D3D",
"#. c #654E3E",
"$. c #784E31",
"%. c #785035",
"&. c #43304C",
"*. c #4A324A",
"=. c #444D4C",
"-. c #464C4C",
";. c #655540",
":. c #6C5545",
">. c #664B59",
",. c #664B5B",
"<. c #684B5E",
"1. c #604860",
"2. c #634A60",
"3. c #664B62",
"4. c #6D5360",
"5. c #755E71",
"6. c #955E3D",
"7. c #A85E2C",
"8. c #9E6C3B",
"9. c #98693F",
"0. c #AD612F",
"q. c #A16432",
"w. c #A36234",
"e. c #A7653A",
"r. c #A0633C",
"t. c #AE613C",
"y. c #A86C3E",
"u. c #DE7B35",
"i. c #D77D3D",
"p. c #9D6943",
"a. c #A86543",
"s. c #A86544",
"d. c #B57B55",
"f. c #805478",
"g. c #C37744",
"h. c #C17A44",
"j. c #CF7F4A",
"k. c #D37E45",
"l. c #D17F47",
"z. c #F2B022",
"x. c #BB8159",
"c. c #D38043",
"v. c #DA8341",
"b. c #DD804A",
"n. c #D8824D",
"m. c #CE8151",
"M. c #D48252",
"N. c #D18A5A",
"B. c #C59672",
"V. c #C5AA7D",
"C. c #FFDB4C",
"Z. c #839796",
"A. c #809898",
"S. c #849E9D",
"D. c #B5A382",
"F. c #BBA380",
"G. c #BAA681",
"H. c #BAAB86",
"J. c #BEAA87",
"K. c #BAAB89",
"L. c #BAA98A",
"P. c #BEB081",
"I. c #BBAE91",
"U. c #84A2A2",
"Y. c #A2B4B2",
"T. c #E6C69B",
"R. c #DBC8A0",
"E. c #DECAA2",
"W. c #D1C6AA",
"Q. c #E2CFAB",
"!. c #EAD4A7",
"~. c #EAD5AA",
"^. c #EBD4AB",
"/. c #EAD6AA",
"(. c #EDD4AB",
"). c #ECD7AA",
"_. c #E9D3AD",
"`. c #F4D2A7",
"'. c #EAD5B1",
"]. c #EFD9B2",
"[. c #A9C7C7",
"{. c #A8C8C7",
"}. c #B0CED0",
"|. c #FFFCFC",
/* pixels */
"                                                            ",
"                                                            ",
"                                                            ",
"                                                            ",
"                                                            ",
"                                    % j.%                   ",
"                    + X X             % j.%                 ",
"                  O t.n.N.d % % % U     % j.%               ",
"                * f 3 7.u.v.k.b.b.x.B D k.l.%               ",
"                % C.w.M.0.l.l.n.l.k.d.d.l.+                 ",
"                9 6.C.C.M.l.l.l.l.j.i.S X                   ",
"                = r.C.C.B.k.l.l.l.l.h.                      ",
"              r 9.y.y D.C.o.$.V.(.`.T.                      ",
"              p y.O ].O.%.i s A L.G.] *                     ",
"              t e.# L.'.|.|.G I.J.|.r                       ",
"              & 8.p.1 H.!.!.~.~.~.).E.                      ",
"            w s.a.@ p . G.Q.~.~.~.~.R.                      ",
"              b q C.C.C.4 P._.~.~.W.k       E t             ",
"              N +.#.H z.; &.3.2.~ 4.f.~.k f =.A.&           ",
"              M } [ #.C.v ~ ! ^ 1.W C ~.~.-.Z.V             ",
"              v C.[ #.z.v *.>.>.<.5.q q Y.U.S.B             ",
"              ; #.:.L C.5 ' _ ( ` K F E Y.{.{.}.$           ",
"                r m v , e  .k u | P T   F v k =             ",
"                    6 / X.R     Z | _                       ",
"                      / /       / /                         ",
"                    / / /       / / /                       ",
"                                                            ",
"                                                            ",
"                                                            ",
"                                                            "
};
