/* XPM */
static char *_93d54293c204d2ac67e9e0817da1802LmOqnWmBXAstiPE3[] = {
/* columns rows colors chars-per-pixel */
"30 30 144 2 ",
"   c #0E0C0A",
".  c #121216",
"X  c #1A1A15",
"o  c #222222",
"O  c #26242B",
"+  c #2B252E",
"@  c #2E2E2D",
"#  c #2C2936",
"$  c #2B2938",
"%  c #302D35",
"&  c #313131",
"*  c #35353C",
"=  c #3B373F",
"-  c #37383A",
";  c #3D3D3E",
":  c #352F43",
">  c #363244",
",  c #393445",
"<  c #3D3C44",
"1  c #3A3649",
"2  c #3D3B4B",
"3  c #3E3C50",
"4  c #413D46",
"5  c #423C4C",
"6  c #443D52",
"7  c #3F424C",
"8  c #3F4551",
"9  c #404144",
"0  c #434548",
"q  c #474B4F",
"w  c #454254",
"e  c #494454",
"r  c #474A54",
"t  c #4A4D54",
"y  c #474458",
"u  c #4A465A",
"i  c #454B5A",
"p  c #4C4B5C",
"a  c #534D5E",
"s  c #4C5157",
"d  c #4E545B",
"f  c #51565C",
"g  c #55595E",
"h  c #5B5B5B",
"j  c #474D61",
"k  c #4A4E61",
"l  c #544E60",
"z  c #4D5263",
"x  c #535364",
"c  c #595566",
"v  c #555A64",
"b  c #5A5967",
"n  c #545669",
"m  c #5A5669",
"M  c #555A6B",
"N  c #5A5C6C",
"B  c #575C71",
"V  c #5B5E71",
"C  c #605768",
"Z  c #615D6E",
"A  c #625D73",
"S  c #5C636D",
"D  c #576074",
"F  c #5C6373",
"G  c #5E6679",
"H  c #5D6879",
"J  c #60666F",
"K  c #626373",
"L  c #696576",
"P  c #646A75",
"I  c #636679",
"U  c #646B7C",
"Y  c #696A7C",
"T  c #6A707C",
"R  c #656E82",
"E  c #6C6F82",
"W  c #667085",
"Q  c #6C7383",
"!  c #6C758A",
"~  c #6F7889",
"^  c #717485",
"/  c #727986",
"(  c #747C8C",
")  c #797E8C",
"_  c #757D92",
"`  c #79818E",
"'  c #768095",
"]  c #7B8494",
"[  c #768198",
"{  c #7B849A",
"}  c #7D879B",
"|  c #7C869C",
" . c #7C869A",
".. c #7F8899",
"X. c #7F8A9F",
"o. c #7F889A",
"O. c #57A5FF",
"+. c #57A5FF",
"@. c #808693",
"#. c #808793",
"$. c #828894",
"%. c #818996",
"&. c #848B96",
"*. c #818996",
"=. c #838A98",
"-. c #858D9A",
";. c #878E9A",
":. c #848D9C",
">. c #838A9B",
",. c #888F9E",
"<. c #89919F",
"1. c #828DA2",
"2. c #838EA2",
"3. c #8792A7",
"4. c #8691A4",
"5. c #8991A1",
"6. c #8B93A0",
"7. c #8891A3",
"8. c #8892A4",
"9. c #8D97A6",
"0. c #8A93A3",
"q. c #8994AA",
"w. c #8B95AA",
"e. c #8B95AA",
"r. c #8F9AAF",
"t. c #8E99AB",
"y. c #9098A4",
"u. c #9198A4",
"i. c #9198A5",
"p. c #939DAC",
"a. c #929EAF",
"s. c #929DAC",
"d. c #8E99B0",
"f. c #8E9AB0",
"g. c #929DB3",
"h. c #99A0AD",
"j. c #96A1B3",
"k. c #99A4B6",
"l. c #98A4BA",
"z. c #98A4BC",
"x. c #98A5BC",
"c. c #9DA8BB",
"v. c #DFEEFF",
"b. c #DFEEFF",
/* pixels */
"&.i.i.y.p.T X X J <.#.] ` o ) @.@.@.` ( / =.X X X p.-.%.T c ",
"6.j.a...Q ' X X 9.@.( ` o o F ( ` ] / S F F F X v q.' I j l ",
";.0.) I Q ( X X <.K M o +.+.v N N N M N N H M X F ! M b.+.o ",
"$.L L T ~ L X f ( v N o b.+.b S S g a N P F a X P ~ M o o o ",
"o o Z Y N C X g _ v F K o o v v M F J S v p w X v ! n b k v ",
"+.+.o x c o O.O.' F P b e o 5 5 e o o o 5 w o o o W V G k l ",
"b.+.o A A o b.b.z N b p o o p u o O.O.o e o o O.+.o M M 3 c ",
"b.+.X X X o O.b.X X X o o o o X O.b.O.o e o O.b.b.X X X X X ",
"X f S v v v o o o X 7 d s f v v +.b.b.o X o O.b.O.o P F X X ",
"K d.d.w.3.d.1._ F X M { ( H F H G X X S J S S v o x.{ _ 8 X ",
":.U N W 0.{ n x F X f ( M w w i k # X z.2.W X.x.( N M B M X ",
"( M z F U m n v o X S F 0 e p z i + X } F p N Q F x B G 3 X ",
"/ u p H z 2 u o O.o o b i p 8 i o + X o n c a n D k w p : X ",
"( w 6 p u w o O.b.O.o z j 2 > 1 o +.b.O.o F x w k y 6 y , X ",
"P , o o o > o O.b.O.X X X X X X +.b.b.+.o 6 , , , , 1 1 X +.",
"X X O.b.o X X X ; ; - - 7 0 0 X X +.b.+.X X X X X X X X X b.",
"( w.P X v k.p.6.:.4.t.p.6.6.6.5.>.5.k.X X b 2./ ~ ~ ] ' T b ",
"` ( 2 X c.i.6...T Q =.6.( R Y L ^ ( ^ , X 2.V M V m / ( F m ",
"( K +.+.o { I K Q Y b Z E A m V E Y A 5 X E a x p w p M p v ",
"=.+.b.b.o E I v Y L o o o o X X X X X X * M M y 2 6 u w > m ",
"X X +.+.o X X X X X O.b.O.o X t q r s X +.+.* # X X X X X t ",
"  r o o o f f f v v O.b.O.t q.q.4.0.g.o b.+.+.X X s t o O.+.",
"v r.g.g.r.3.w.g.X.[ X.[ X ~ q... .>.' o b.b.+.U { U ~ o O.b.",
"6.{ U U ( 3.( U N p x M X T X.Q 2. .N o o X t | F i z z o o ",
"%.{ n p N Y V z l m l y X ^ 4.D b.O.o F B X X E i i e p > ; ",
"` R M l l l B F F n 6 1 X ! Q x O.O.o M p % X V 6 k p p # ; ",
"( x M M w w M M i w 6 w X Q 6 l o o o w 6 X X I 2 1 p w # ; ",
") I O.b.b.o u y 6 w u w X o o u 6 6 6 w p X X V S V V S # < ",
"X 1 O.b.b.o > > > 1 1 O +.+.o 6 6 6 6 6 o X X V V V V V . & ",
"X X X O.O.o X X X X X +.b.b.o R X X X X o +.b.X X X X ; @ h "
};
